<svg width="71" height="71" viewBox="0 0 71 71" fill="none" xmlns="http://www.w3.org/2000/svg">
<path d="M63.3929 0H7.60714C3.408 0 0 3.408 0 7.60714V63.3929C0 67.592 3.408 71 7.60714 71H63.3929C67.592 71 71 67.592 71 63.3929V7.60714C71 3.408 67.592 0 63.3929 0ZM20.1285 55.8643C19.7082 56.5913 19.0163 57.1215 18.205 57.3384C17.3937 57.5552 16.5296 57.4409 15.8026 57.0206C15.0756 56.6003 14.5453 55.9084 14.3285 55.0971C14.1117 54.2859 14.226 53.4217 14.6463 52.6947L16.9132 48.7795C19.4641 48.0036 21.5561 48.6046 23.1891 50.585L20.1285 55.8643ZM42.141 47.324H13.3125C11.5679 47.324 10.1429 45.8964 10.1429 44.1544C10.1429 42.4124 11.5705 40.9848 13.3125 40.9848H21.3964L31.7598 23.0446L28.5116 17.4356C28.0935 16.7081 27.9805 15.8446 28.1971 15.034C28.4138 14.2234 28.9426 13.5315 29.6679 13.1096C30.3954 12.6916 31.2588 12.5785 32.0694 12.7952C32.88 13.0119 33.5719 13.5406 33.9938 14.2659L35.4036 16.7053L36.8135 14.2659C37.0216 13.906 37.2986 13.5905 37.6286 13.3376C37.9587 13.0847 38.3353 12.8992 38.737 12.7919C39.1387 12.6845 39.5576 12.6573 39.9698 12.7118C40.382 12.7663 40.7795 12.9015 41.1394 13.1096C41.4994 13.3178 41.8148 13.5947 42.0678 13.9248C42.3207 14.2548 42.5061 14.6314 42.6135 15.0331C42.7209 15.4348 42.7481 15.8537 42.6935 16.266C42.639 16.6782 42.5038 17.0756 42.2957 17.4356L28.6992 40.9873H38.5403C41.7404 40.9873 43.5331 44.7427 42.1385 47.3266L42.141 47.324ZM57.6875 47.324H53.0903L56.1965 52.6972C57.0688 54.2186 56.5439 56.1534 55.0402 57.0231C53.5188 57.8954 51.584 57.3705 50.7143 55.8669C45.5009 46.8499 41.6009 40.0668 38.9866 35.5659C36.3393 30.9687 38.2259 26.374 40.1125 24.8221C42.1892 28.4203 45.2955 33.8087 49.4464 40.9873H57.6875C58.5281 40.9873 59.3344 41.3212 59.9288 41.9157C60.5232 42.5101 60.8571 43.3163 60.8571 44.1569C60.8571 44.9976 60.5232 45.8038 59.9288 46.3982C59.3344 46.9926 58.5281 47.324 57.6875 47.324Z" fill="#E9E9EF"/>
</svg>
